<?plantuml 1.2026.1?><svg xmlns="http://www.w3.org/2000/svg" xmlns:xlink="http://www.w3.org/1999/xlink" contentStyleType="text/css" data-diagram-type="SEQUENCE" height="1524px" preserveAspectRatio="none" style="width:1496px;height:1524px;background:#FFFFFF;" version="1.1" viewBox="0 0 1496 1524" width="1496px" zoomAndPan="magnify"><defs/><g><g><title>ClientApp</title><rect fill="#FFFFFF" height="454.8281" style="stroke:#181818;stroke-width:1;" width="10" x="214.8433" y="112.4297"/></g><g><title>ClientApp</title><rect fill="#FFFFFF" height="831.5859" style="stroke:#181818;stroke-width:1;" width="10" x="214.8433" y="603.3906"/></g><g><title>ChatService</title><rect fill="#FFFFFF" height="1251.2813" style="stroke:#181818;stroke-width:1;" width="10" x="421.73" y="183.6953"/></g><g><title>ConnectionService</title><rect fill="#FFFFFF" height="73.2344" style="stroke:#181818;stroke-width:1;" width="10" x="683.5981" y="429.7578"/></g><g><title>ConnectionService</title><rect fill="#FFFFFF" height="29.1328" style="stroke:#181818;stroke-width:1;" width="10" x="683.5981" y="1389.8438"/></g><g><title>PeerService</title><rect fill="#FFFFFF" height="187.7969" style="stroke:#181818;stroke-width:1;" width="10" x="814.6592" y="212.8281"/></g><g><title>LocalDatabase</title><rect fill="#FFFFFF" height="29.1328" style="stroke:#181818;stroke-width:1;" width="10" x="1004.3545" y="241.9609"/></g><g><title>LocalDatabase</title><rect fill="#FFFFFF" height="682.9219" style="stroke:#181818;stroke-width:1;" width="10" x="1004.3545" y="661.6563"/></g><g><title>TCPClientAdapter</title><rect fill="#FFFFFF" height="335.4609" style="stroke:#181818;stroke-width:1;" width="10" x="1141.5645" y="1099.5156"/></g><g><title>TCPServerAdapter</title><rect fill="#FFFFFF" height="29.1328" style="stroke:#181818;stroke-width:1;" width="10" x="1291.3423" y="1389.8438"/></g><rect fill="none" height="219.9297" style="stroke:#000000;stroke-width:1.5;" width="710.5195" x="367.501" y="705.7891"/><rect fill="none" height="193.9297" style="stroke:#000000;stroke-width:1.5;" width="857.6074" x="367.501" y="1143.6484"/><rect fill="none" height="75.3984" style="stroke:#000000;stroke-width:1.5;" width="1010.0752" x="367.501" y="1351.5781"/><g class="participant-lifeline" data-entity-uid="part1" data-qualified-name="User" id="part1-lifeline"><g><title>User</title><rect fill="#000000" fill-opacity="0.00000" height="1362.6797" width="8" x="19.9551" y="81.2969"/><line style="stroke:#181818;stroke-width:0.5;stroke-dasharray:5,5;" x1="23" x2="23" y1="81.2969" y2="1443.9766"/></g></g><g class="participant-lifeline" data-entity-uid="part2" data-qualified-name="ClientApp" id="part2-lifeline"><g><title>ClientApp</title><rect fill="#000000" fill-opacity="0.00000" height="1362.6797" width="8" x="215.8433" y="81.2969"/><line style="stroke:#181818;stroke-width:0.5;stroke-dasharray:5,5;" x1="218.9028" x2="218.9028" y1="81.2969" y2="1443.9766"/></g></g><g class="participant-lifeline" data-entity-uid="part3" data-qualified-name="ChatService" id="part3-lifeline"><g><title>ChatService</title><rect fill="#000000" fill-opacity="0.00000" height="1362.6797" width="8" x="422.73" y="81.2969"/><line style="stroke:#181818;stroke-width:0.5;stroke-dasharray:5,5;" x1="426.501" x2="426.501" y1="81.2969" y2="1443.9766"/></g></g><g class="participant-lifeline" data-entity-uid="part4" data-qualified-name="ConnectionService" id="part4-lifeline"><g><title>ConnectionService</title><rect fill="#000000" fill-opacity="0.00000" height="1362.6797" width="8" x="684.5981" y="81.2969"/><line style="stroke:#181818;stroke-width:0.5;stroke-dasharray:5,5;" x1="688.1201" x2="688.1201" y1="81.2969" y2="1443.9766"/></g></g><g class="participant-lifeline" data-entity-uid="part5" data-qualified-name="PeerService" id="part5-lifeline"><g><title>PeerService</title><rect fill="#000000" fill-opacity="0.00000" height="1362.6797" width="8" x="815.6592" y="81.2969"/><line style="stroke:#181818;stroke-width:0.5;stroke-dasharray:5,5;" x1="819.0762" x2="819.0762" y1="81.2969" y2="1443.9766"/></g></g><g class="participant-lifeline" data-entity-uid="part6" data-qualified-name="LocalDatabase" id="part6-lifeline"><g><title>LocalDatabase</title><rect fill="#000000" fill-opacity="0.00000" height="1362.6797" width="8" x="1005.3545" y="81.2969"/><line style="stroke:#181818;stroke-width:0.5;stroke-dasharray:5,5;" x1="1008.6885" x2="1008.6885" y1="81.2969" y2="1443.9766"/></g></g><g class="participant-lifeline" data-entity-uid="part7" data-qualified-name="TCPClientAdapter" id="part7-lifeline"><g><title>TCPClientAdapter</title><rect fill="#000000" fill-opacity="0.00000" height="1362.6797" width="8" x="1142.5645" y="81.2969"/><line style="stroke:#181818;stroke-width:0.5;stroke-dasharray:5,5;" x1="1146.0205" x2="1146.0205" y1="81.2969" y2="1443.9766"/></g></g><g class="participant-lifeline" data-entity-uid="part8" data-qualified-name="TCPServerAdapter" id="part8-lifeline"><g><title>TCPServerAdapter</title><rect fill="#000000" fill-opacity="0.00000" height="1362.6797" width="8" x="1292.3423" y="81.2969"/><line style="stroke:#181818;stroke-width:0.5;stroke-dasharray:5,5;" x1="1296.1084" x2="1296.1084" y1="81.2969" y2="1443.9766"/></g></g><g class="participant-lifeline" data-entity-uid="part9" data-qualified-name="PeerClientApp" id="part9-lifeline"><g><title>PeerClientApp</title><rect fill="#000000" fill-opacity="0.00000" height="1362.6797" width="8" x="1430.229" y="81.2969"/><line style="stroke:#181818;stroke-width:0.5;stroke-dasharray:5,5;" x1="1433.5762" x2="1433.5762" y1="81.2969" y2="1443.9766"/></g></g><g class="participant participant-head" data-entity-uid="part1" data-qualified-name="User" id="part1-head"><text fill="#000000" font-family="sans-serif" font-size="14" lengthAdjust="spacing" textLength="31.9102" x="5" y="77.9951">User</text><ellipse cx="23.9551" cy="13.5" fill="#E2E2F0" rx="8" ry="8" style="stroke:#181818;stroke-width:0.5;"/><path d="M23.9551,21.5 L23.9551,48.5 M10.9551,29.5 L36.9551,29.5 M23.9551,48.5 L10.9551,63.5 M23.9551,48.5 L36.9551,63.5" fill="none" style="stroke:#181818;stroke-width:0.5;"/></g><g class="participant participant-tail" data-entity-uid="part1" data-qualified-name="User" id="part1-tail"><text fill="#000000" font-family="sans-serif" font-size="14" lengthAdjust="spacing" textLength="31.9102" x="5" y="1455.9717">User</text><ellipse cx="23.9551" cy="1467.7734" fill="#E2E2F0" rx="8" ry="8" style="stroke:#181818;stroke-width:0.5;"/><path d="M23.9551,1475.7734 L23.9551,1502.7734 M10.9551,1483.7734 L36.9551,1483.7734 M23.9551,1502.7734 L10.9551,1517.7734 M23.9551,1502.7734 L36.9551,1517.7734" fill="none" style="stroke:#181818;stroke-width:0.5;"/></g><g class="participant participant-head" data-entity-uid="part2" data-qualified-name="ClientApp" id="part2-head"><rect fill="#E2E2F0" height="30.2969" rx="2.5" ry="2.5" style="stroke:#181818;stroke-width:0.5;" width="81.8809" x="178.9028" y="50"/><text fill="#000000" font-family="sans-serif" font-size="14" lengthAdjust="spacing" textLength="67.8809" x="185.9028" y="69.9951">ClientApp</text></g><g class="participant participant-tail" data-entity-uid="part2" data-qualified-name="ClientApp" id="part2-tail"><rect fill="#E2E2F0" height="30.2969" rx="2.5" ry="2.5" style="stroke:#181818;stroke-width:0.5;" width="81.8809" x="178.9028" y="1442.9766"/><text fill="#000000" font-family="sans-serif" font-size="14" lengthAdjust="spacing" textLength="67.8809" x="185.9028" y="1462.9717">ClientApp</text></g><g class="participant participant-head" data-entity-uid="part3" data-qualified-name="ChatService" id="part3-head"><rect fill="#E2E2F0" height="30.2969" rx="2.5" ry="2.5" style="stroke:#181818;stroke-width:0.5;" width="98.458" x="377.501" y="50"/><text fill="#000000" font-family="sans-serif" font-size="14" lengthAdjust="spacing" textLength="84.458" x="384.501" y="69.9951">ChatService</text></g><g class="participant participant-tail" data-entity-uid="part3" data-qualified-name="ChatService" id="part3-tail"><rect fill="#E2E2F0" height="30.2969" rx="2.5" ry="2.5" style="stroke:#181818;stroke-width:0.5;" width="98.458" x="377.501" y="1442.9766"/><text fill="#000000" font-family="sans-serif" font-size="14" lengthAdjust="spacing" textLength="84.458" x="384.501" y="1462.9717">ChatService</text></g><g class="participant participant-head" data-entity-uid="part4" data-qualified-name="ConnectionService" id="part4-head"><rect fill="#E2E2F0" height="30.2969" rx="2.5" ry="2.5" style="stroke:#181818;stroke-width:0.5;" width="144.9561" x="616.1201" y="50"/><text fill="#000000" font-family="sans-serif" font-size="14" lengthAdjust="spacing" textLength="130.9561" x="623.1201" y="69.9951">ConnectionService</text></g><g class="participant participant-tail" data-entity-uid="part4" data-qualified-name="ConnectionService" id="part4-tail"><rect fill="#E2E2F0" height="30.2969" rx="2.5" ry="2.5" style="stroke:#181818;stroke-width:0.5;" width="144.9561" x="616.1201" y="1442.9766"/><text fill="#000000" font-family="sans-serif" font-size="14" lengthAdjust="spacing" textLength="130.9561" x="623.1201" y="1462.9717">ConnectionService</text></g><g class="participant participant-head" data-entity-uid="part5" data-qualified-name="PeerService" id="part5-head"><rect fill="#E2E2F0" height="30.2969" rx="2.5" ry="2.5" style="stroke:#181818;stroke-width:0.5;" width="97.166" x="771.0762" y="50"/><text fill="#000000" font-family="sans-serif" font-size="14" lengthAdjust="spacing" textLength="83.166" x="778.0762" y="69.9951">PeerService</text></g><g class="participant participant-tail" data-entity-uid="part5" data-qualified-name="PeerService" id="part5-tail"><rect fill="#E2E2F0" height="30.2969" rx="2.5" ry="2.5" style="stroke:#181818;stroke-width:0.5;" width="97.166" x="771.0762" y="1442.9766"/><text fill="#000000" font-family="sans-serif" font-size="14" lengthAdjust="spacing" textLength="83.166" x="778.0762" y="1462.9717">PeerService</text></g><g class="participant participant-head" data-entity-uid="part6" data-qualified-name="LocalDatabase" id="part6-head"><rect fill="#E2E2F0" height="30.2969" rx="2.5" ry="2.5" style="stroke:#181818;stroke-width:0.5;" width="117.332" x="950.6885" y="50"/><text fill="#000000" font-family="sans-serif" font-size="14" lengthAdjust="spacing" textLength="103.332" x="957.6885" y="69.9951">LocalDatabase</text></g><g class="participant participant-tail" data-entity-uid="part6" data-qualified-name="LocalDatabase" id="part6-tail"><rect fill="#E2E2F0" height="30.2969" rx="2.5" ry="2.5" style="stroke:#181818;stroke-width:0.5;" width="117.332" x="950.6885" y="1442.9766"/><text fill="#000000" font-family="sans-serif" font-size="14" lengthAdjust="spacing" textLength="103.332" x="957.6885" y="1462.9717">LocalDatabase</text></g><g class="participant participant-head" data-entity-uid="part7" data-qualified-name="TCPClientAdapter" id="part7-head"><rect fill="#E2E2F0" height="30.2969" rx="2.5" ry="2.5" style="stroke:#181818;stroke-width:0.5;" width="137.0879" x="1078.0205" y="50"/><text fill="#000000" font-family="sans-serif" font-size="14" lengthAdjust="spacing" textLength="123.0879" x="1085.0205" y="69.9951">TCPClientAdapter</text></g><g class="participant participant-tail" data-entity-uid="part7" data-qualified-name="TCPClientAdapter" id="part7-tail"><rect fill="#E2E2F0" height="30.2969" rx="2.5" ry="2.5" style="stroke:#181818;stroke-width:0.5;" width="137.0879" x="1078.0205" y="1442.9766"/><text fill="#000000" font-family="sans-serif" font-size="14" lengthAdjust="spacing" textLength="123.0879" x="1085.0205" y="1462.9717">TCPClientAdapter</text></g><g class="participant participant-head" data-entity-uid="part8" data-qualified-name="TCPServerAdapter" id="part8-head"><rect fill="#E2E2F0" height="30.2969" rx="2.5" ry="2.5" style="stroke:#181818;stroke-width:0.5;" width="142.4678" x="1225.1084" y="50"/><text fill="#000000" font-family="sans-serif" font-size="14" lengthAdjust="spacing" textLength="128.4678" x="1232.1084" y="69.9951">TCPServerAdapter</text></g><g class="participant participant-tail" data-entity-uid="part8" data-qualified-name="TCPServerAdapter" id="part8-tail"><rect fill="#E2E2F0" height="30.2969" rx="2.5" ry="2.5" style="stroke:#181818;stroke-width:0.5;" width="142.4678" x="1225.1084" y="1442.9766"/><text fill="#000000" font-family="sans-serif" font-size="14" lengthAdjust="spacing" textLength="128.4678" x="1232.1084" y="1462.9717">TCPServerAdapter</text></g><g class="participant participant-head" data-entity-uid="part9" data-qualified-name="PeerClientApp" id="part9-head"><rect fill="#E2E2F0" height="30.2969" rx="2.5" ry="2.5" style="stroke:#181818;stroke-width:0.5;" width="113.3057" x="1377.5762" y="50"/><text fill="#000000" font-family="sans-serif" font-size="14" lengthAdjust="spacing" textLength="99.3057" x="1384.5762" y="69.9951">PeerClientApp</text></g><g class="participant participant-tail" data-entity-uid="part9" data-qualified-name="PeerClientApp" id="part9-tail"><rect fill="#E2E2F0" height="30.2969" rx="2.5" ry="2.5" style="stroke:#181818;stroke-width:0.5;" width="113.3057" x="1377.5762" y="1442.9766"/><text fill="#000000" font-family="sans-serif" font-size="14" lengthAdjust="spacing" textLength="99.3057" x="1384.5762" y="1462.9717">PeerClientApp</text></g><g><title>ClientApp</title><rect fill="#FFFFFF" height="454.8281" style="stroke:#181818;stroke-width:1;" width="10" x="214.8433" y="112.4297"/></g><g><title>ClientApp</title><rect fill="#FFFFFF" height="831.5859" style="stroke:#181818;stroke-width:1;" width="10" x="214.8433" y="603.3906"/></g><g><title>ChatService</title><rect fill="#FFFFFF" height="1251.2813" style="stroke:#181818;stroke-width:1;" width="10" x="421.73" y="183.6953"/></g><g><title>ConnectionService</title><rect fill="#FFFFFF" height="73.2344" style="stroke:#181818;stroke-width:1;" width="10" x="683.5981" y="429.7578"/></g><g><title>ConnectionService</title><rect fill="#FFFFFF" height="29.1328" style="stroke:#181818;stroke-width:1;" width="10" x="683.5981" y="1389.8438"/></g><g><title>PeerService</title><rect fill="#FFFFFF" height="187.7969" style="stroke:#181818;stroke-width:1;" width="10" x="814.6592" y="212.8281"/></g><g><title>LocalDatabase</title><rect fill="#FFFFFF" height="29.1328" style="stroke:#181818;stroke-width:1;" width="10" x="1004.3545" y="241.9609"/></g><g><title>LocalDatabase</title><rect fill="#FFFFFF" height="682.9219" style="stroke:#181818;stroke-width:1;" width="10" x="1004.3545" y="661.6563"/></g><g><title>TCPClientAdapter</title><rect fill="#FFFFFF" height="335.4609" style="stroke:#181818;stroke-width:1;" width="10" x="1141.5645" y="1099.5156"/></g><g><title>TCPServerAdapter</title><rect fill="#FFFFFF" height="29.1328" style="stroke:#181818;stroke-width:1;" width="10" x="1291.3423" y="1389.8438"/></g><g class="message" data-entity-1="part1" data-entity-2="part2" id="msg1"><polygon fill="#181818" points="202.8433,108.4297,212.8433,112.4297,202.8433,116.4297,206.8433,112.4297" style="stroke:#181818;stroke-width:1;"/><line style="stroke:#181818;stroke-width:1;" x1="23.9551" x2="208.8433" y1="112.4297" y2="112.4297"/><text fill="#000000" font-family="sans-serif" font-size="13" lengthAdjust="spacing" textLength="171.8882" x="30.9551" y="107.3638">clicks chat room with peer</text></g><g class="message" data-entity-1="part2" data-entity-2="part2" id="msg2"><line style="stroke:#181818;stroke-width:1;" x1="224.8433" x2="266.8433" y1="141.5625" y2="141.5625"/><line style="stroke:#181818;stroke-width:1;" x1="266.8433" x2="266.8433" y1="141.5625" y2="154.5625"/><line style="stroke:#181818;stroke-width:1;" x1="225.8433" x2="266.8433" y1="154.5625" y2="154.5625"/><polygon fill="#181818" points="235.8433,150.5625,225.8433,154.5625,235.8433,158.5625,231.8433,154.5625" style="stroke:#181818;stroke-width:1;"/><text fill="#000000" font-family="sans-serif" font-size="13" lengthAdjust="spacing" textLength="140.645" x="231.8433" y="136.4966">get the ID of the peer</text></g><g class="message" data-entity-1="part2" data-entity-2="part3" id="msg3"><polygon fill="#181818" points="409.73,179.6953,419.73,183.6953,409.73,187.6953,413.73,183.6953" style="stroke:#181818;stroke-width:1;"/><line style="stroke:#181818;stroke-width:1;" x1="224.8433" x2="415.73" y1="183.6953" y2="183.6953"/><text fill="#000000" font-family="sans-serif" font-size="13" lengthAdjust="spacing" textLength="177.8867" x="231.8433" y="178.6294">connect to the peer with ID</text></g><g class="message" data-entity-1="part3" data-entity-2="part5" id="msg4"><polygon fill="#181818" points="802.6592,208.8281,812.6592,212.8281,802.6592,216.8281,806.6592,212.8281" style="stroke:#181818;stroke-width:1;"/><line style="stroke:#181818;stroke-width:1;" x1="431.73" x2="808.6592" y1="212.8281" y2="212.8281"/><text fill="#000000" font-family="sans-serif" font-size="13" lengthAdjust="spacing" textLength="227.7729" x="438.73" y="207.7622">get the peer in the database via ID</text></g><g class="message" data-entity-1="part5" data-entity-2="part6" id="msg5"><polygon fill="#181818" points="992.3545,237.9609,1002.3545,241.9609,992.3545,245.9609,996.3545,241.9609" style="stroke:#181818;stroke-width:1;"/><line style="stroke:#181818;stroke-width:1;" x1="824.6592" x2="998.3545" y1="241.9609" y2="241.9609"/><text fill="#000000" font-family="sans-serif" font-size="13" lengthAdjust="spacing" textLength="80.5391" x="831.6592" y="236.895">get the peer</text></g><g class="message" data-entity-1="part6" data-entity-2="part5" id="msg6"><polygon fill="#181818" points="835.6592,267.0938,825.6592,271.0938,835.6592,275.0938,831.6592,271.0938" style="stroke:#181818;stroke-width:1;"/><line style="stroke:#181818;stroke-width:1;stroke-dasharray:2,2;" x1="829.6592" x2="1008.3545" y1="271.0938" y2="271.0938"/><text fill="#000000" font-family="sans-serif" font-size="13" lengthAdjust="spacing" textLength="80.7612" x="841.6592" y="266.0278">returns peer</text></g><g class="message" data-entity-1="part5" data-entity-2="part3" id="msg7"><polygon fill="#181818" points="442.73,296.2266,432.73,300.2266,442.73,304.2266,438.73,300.2266" style="stroke:#181818;stroke-width:1;"/><line style="stroke:#181818;stroke-width:1;stroke-dasharray:2,2;" x1="436.73" x2="813.6592" y1="300.2266" y2="300.2266"/><text fill="#000000" font-family="sans-serif" font-size="13" lengthAdjust="spacing" textLength="80.7612" x="448.73" y="295.1606">returns peer</text></g><g class="message" data-entity-1="part3" data-entity-2="part5" id="msg8"><polygon fill="#181818" points="802.6592,325.3594,812.6592,329.3594,802.6592,333.3594,806.6592,329.3594" style="stroke:#181818;stroke-width:1;"/><line style="stroke:#181818;stroke-width:1;" x1="431.73" x2="808.6592" y1="329.3594" y2="329.3594"/><text fill="#000000" font-family="sans-serif" font-size="13" lengthAdjust="spacing" textLength="197.0757" x="438.73" y="324.2935">get the discovered peer via ID</text></g><g class="message" data-entity-1="part5" data-entity-2="part5" id="msg9"><line style="stroke:#181818;stroke-width:1;" x1="824.6592" x2="866.6592" y1="358.4922" y2="358.4922"/><line style="stroke:#181818;stroke-width:1;" x1="866.6592" x2="866.6592" y1="358.4922" y2="371.4922"/><line style="stroke:#181818;stroke-width:1;" x1="825.6592" x2="866.6592" y1="371.4922" y2="371.4922"/><polygon fill="#181818" points="835.6592,367.4922,825.6592,371.4922,835.6592,375.4922,831.6592,371.4922" style="stroke:#181818;stroke-width:1;"/><text fill="#000000" font-family="sans-serif" font-size="13" lengthAdjust="spacing" textLength="155.6953" x="831.6592" y="353.4263">get the discovered peer</text></g><g class="message" data-entity-1="part5" data-entity-2="part3" id="msg10"><polygon fill="#181818" points="442.73,396.625,432.73,400.625,442.73,404.625,438.73,400.625" style="stroke:#181818;stroke-width:1;"/><line style="stroke:#181818;stroke-width:1;stroke-dasharray:2,2;" x1="436.73" x2="818.6592" y1="400.625" y2="400.625"/><text fill="#000000" font-family="sans-serif" font-size="13" lengthAdjust="spacing" textLength="155.9175" x="448.73" y="395.5591">returns discovered peer</text></g><g class="message" data-entity-1="part3" data-entity-2="part4" id="msg11"><polygon fill="#181818" points="671.5981,425.7578,681.5981,429.7578,671.5981,433.7578,675.5981,429.7578" style="stroke:#181818;stroke-width:1;"/><line style="stroke:#181818;stroke-width:1;" x1="431.73" x2="677.5981" y1="429.7578" y2="429.7578"/><text fill="#000000" font-family="sans-serif" font-size="13" lengthAdjust="spacing" textLength="226.7764" x="438.73" y="424.6919">connect to the peer via IP and port</text></g><rect fill="none" height="39.1016" style="stroke:#000000;stroke-width:1.5;" width="152.2402" x="613.1201" y="437.7578"/><path d="M613.1201,437.7578 L678.1201,437.7578 L678.1201,444.7578 L668.1201,454.7578 L613.1201,454.7578 L613.1201,437.7578" fill="#EEEEEE" style="stroke:#000000;stroke-width:2;"/><text fill="#000000" font-family="sans-serif" font-size="13" font-weight="bold" lengthAdjust="spacing" textLength="20.8838" x="626.1201" y="451.8247">ref</text><text fill="#000000" font-family="sans-serif" font-size="12" lengthAdjust="spacing" textLength="144.2402" x="617.1201" y="469.8965">peer to peer connection</text><g class="message" data-entity-1="part4" data-entity-2="part3" id="msg12"><polygon fill="#181818" points="442.73,498.9922,432.73,502.9922,442.73,506.9922,438.73,502.9922" style="stroke:#181818;stroke-width:1;"/><line style="stroke:#181818;stroke-width:1;stroke-dasharray:2,2;" x1="436.73" x2="687.5981" y1="502.9922" y2="502.9922"/><text fill="#000000" font-family="sans-serif" font-size="13" lengthAdjust="spacing" textLength="150.7886" x="448.73" y="497.9263">connected successfully</text></g><g class="message" data-entity-1="part3" data-entity-2="part2" id="msg13"><polygon fill="#181818" points="235.8433,528.125,225.8433,532.125,235.8433,536.125,231.8433,532.125" style="stroke:#181818;stroke-width:1;"/><line style="stroke:#181818;stroke-width:1;stroke-dasharray:2,2;" x1="229.8433" x2="420.73" y1="532.125" y2="532.125"/><text fill="#000000" font-family="sans-serif" font-size="13" lengthAdjust="spacing" textLength="150.7886" x="241.8433" y="527.0591">connected successfully</text></g><g class="message" data-entity-1="part3" data-entity-2="part3" id="msg14"><line style="stroke:#181818;stroke-width:1;" x1="431.73" x2="473.73" y1="561.2578" y2="561.2578"/><line style="stroke:#181818;stroke-width:1;" x1="473.73" x2="473.73" y1="561.2578" y2="574.2578"/><line style="stroke:#181818;stroke-width:1;" x1="432.73" x2="473.73" y1="574.2578" y2="574.2578"/><polygon fill="#181818" points="442.73,570.2578,432.73,574.2578,442.73,578.2578,438.73,574.2578" style="stroke:#181818;stroke-width:1;"/><text fill="#000000" font-family="sans-serif" font-size="13" lengthAdjust="spacing" textLength="173.4434" x="438.73" y="556.1919">initialize the peer property</text></g><g class="message" data-entity-1="part1" data-entity-2="part2" id="msg15"><polygon fill="#181818" points="202.8433,599.3906,212.8433,603.3906,202.8433,607.3906,206.8433,603.3906" style="stroke:#181818;stroke-width:1;"/><line style="stroke:#181818;stroke-width:1;" x1="23.9551" x2="208.8433" y1="603.3906" y2="603.3906"/><text fill="#000000" font-family="sans-serif" font-size="13" lengthAdjust="spacing" textLength="93.8184" x="30.9551" y="598.3247">send message</text></g><g class="message" data-entity-1="part2" data-entity-2="part3" id="msg16"><polygon fill="#181818" points="409.73,628.5234,419.73,632.5234,409.73,636.5234,413.73,632.5234" style="stroke:#181818;stroke-width:1;"/><line style="stroke:#181818;stroke-width:1;" x1="224.8433" x2="415.73" y1="632.5234" y2="632.5234"/><text fill="#000000" font-family="sans-serif" font-size="13" lengthAdjust="spacing" textLength="170.1934" x="231.8433" y="627.4575">send message to the peer</text></g><g class="message" data-entity-1="part3" data-entity-2="part6" id="msg17"><polygon fill="#181818" points="992.3545,657.6563,1002.3545,661.6563,992.3545,665.6563,996.3545,661.6563" style="stroke:#181818;stroke-width:1;"/><line style="stroke:#181818;stroke-width:1;" x1="431.73" x2="998.3545" y1="661.6563" y2="661.6563"/><text fill="#000000" font-family="sans-serif" font-size="13" lengthAdjust="spacing" textLength="271.5146" x="438.73" y="656.5903">check if conversation with the peer exists</text></g><g class="message" data-entity-1="part6" data-entity-2="part3" id="msg18"><polygon fill="#181818" points="442.73,686.7891,432.73,690.7891,442.73,694.7891,438.73,690.7891" style="stroke:#181818;stroke-width:1;"/><line style="stroke:#181818;stroke-width:1;stroke-dasharray:2,2;" x1="436.73" x2="1003.3545" y1="690.7891" y2="690.7891"/><text fill="#000000" font-family="sans-serif" font-size="13" lengthAdjust="spacing" textLength="245.6924" x="448.73" y="685.7231">returns boolean if conversation exists</text></g><path d="M367.501,705.7891 L431.9438,705.7891 L431.9438,712.9219 L421.9438,722.9219 L367.501,722.9219 L367.501,705.7891" fill="#EEEEEE" style="stroke:#000000;stroke-width:1.5;"/><rect fill="none" height="219.9297" style="stroke:#000000;stroke-width:1.5;" width="710.5195" x="367.501" y="705.7891"/><text fill="#000000" font-family="sans-serif" font-size="13" font-weight="bold" lengthAdjust="spacing" textLength="19.4429" x="382.501" y="718.856">alt</text><text fill="#000000" font-family="sans-serif" font-size="11" font-weight="bold" lengthAdjust="spacing" textLength="143.3008" x="446.9438" y="717.9995">[if conversation exists]</text><g class="message" data-entity-1="part3" data-entity-2="part6" id="msg19"><polygon fill="#181818" points="992.3545,740.0547,1002.3545,744.0547,992.3545,748.0547,996.3545,744.0547" style="stroke:#181818;stroke-width:1;"/><line style="stroke:#181818;stroke-width:1;" x1="431.73" x2="998.3545" y1="744.0547" y2="744.0547"/><text fill="#000000" font-family="sans-serif" font-size="13" lengthAdjust="spacing" textLength="134.9639" x="438.73" y="738.9888">get the conversation</text></g><g class="message" data-entity-1="part6" data-entity-2="part3" id="msg20"><polygon fill="#181818" points="442.73,769.1875,432.73,773.1875,442.73,777.1875,438.73,773.1875" style="stroke:#181818;stroke-width:1;"/><line style="stroke:#181818;stroke-width:1;stroke-dasharray:2,2;" x1="436.73" x2="1003.3545" y1="773.1875" y2="773.1875"/><text fill="#000000" font-family="sans-serif" font-size="13" lengthAdjust="spacing" textLength="135.186" x="448.73" y="768.1216">returns conversation</text></g><g class="message" data-entity-1="part3" data-entity-2="part3" id="msg21"><line style="stroke:#181818;stroke-width:1;" x1="431.73" x2="473.73" y1="802.3203" y2="802.3203"/><line style="stroke:#181818;stroke-width:1;" x1="473.73" x2="473.73" y1="802.3203" y2="815.3203"/><line style="stroke:#181818;stroke-width:1;" x1="432.73" x2="473.73" y1="815.3203" y2="815.3203"/><polygon fill="#181818" points="442.73,811.3203,432.73,815.3203,442.73,819.3203,438.73,815.3203" style="stroke:#181818;stroke-width:1;"/><text fill="#000000" font-family="sans-serif" font-size="13" lengthAdjust="spacing" textLength="227.8682" x="438.73" y="797.2544">initialize the conversation property</text></g><line style="stroke:#000000;stroke-width:1;stroke-dasharray:2,2;" x1="367.501" x2="1078.0205" y1="824.3203" y2="824.3203"/><g class="message" data-entity-1="part3" data-entity-2="part6" id="msg22"><polygon fill="#181818" points="992.3545,842.4531,1002.3545,846.4531,992.3545,850.4531,996.3545,846.4531" style="stroke:#181818;stroke-width:1;"/><line style="stroke:#181818;stroke-width:1;" x1="431.73" x2="998.3545" y1="846.4531" y2="846.4531"/><text fill="#000000" font-family="sans-serif" font-size="13" lengthAdjust="spacing" textLength="129.7017" x="438.73" y="841.3872">create conversation</text></g><g class="message" data-entity-1="part6" data-entity-2="part3" id="msg23"><polygon fill="#181818" points="442.73,871.5859,432.73,875.5859,442.73,879.5859,438.73,875.5859" style="stroke:#181818;stroke-width:1;"/><line style="stroke:#181818;stroke-width:1;stroke-dasharray:2,2;" x1="436.73" x2="1003.3545" y1="875.5859" y2="875.5859"/><text fill="#000000" font-family="sans-serif" font-size="13" lengthAdjust="spacing" textLength="135.186" x="448.73" y="870.52">returns conversation</text></g><g class="message" data-entity-1="part3" data-entity-2="part3" id="msg24"><line style="stroke:#181818;stroke-width:1;" x1="431.73" x2="473.73" y1="904.7188" y2="904.7188"/><line style="stroke:#181818;stroke-width:1;" x1="473.73" x2="473.73" y1="904.7188" y2="917.7188"/><line style="stroke:#181818;stroke-width:1;" x1="432.73" x2="473.73" y1="917.7188" y2="917.7188"/><polygon fill="#181818" points="442.73,913.7188,432.73,917.7188,442.73,921.7188,438.73,917.7188" style="stroke:#181818;stroke-width:1;"/><text fill="#000000" font-family="sans-serif" font-size="13" lengthAdjust="spacing" textLength="227.8682" x="438.73" y="899.6528">initialize the conversation property</text></g><g class="message" data-entity-1="part3" data-entity-2="part6" id="msg25"><polygon fill="#181818" points="992.3545,949.8516,1002.3545,953.8516,992.3545,957.8516,996.3545,953.8516" style="stroke:#181818;stroke-width:1;"/><line style="stroke:#181818;stroke-width:1;" x1="431.73" x2="998.3545" y1="953.8516" y2="953.8516"/><text fill="#000000" font-family="sans-serif" font-size="13" lengthAdjust="spacing" textLength="92.9868" x="438.73" y="948.7856">save message</text></g><g class="message" data-entity-1="part6" data-entity-2="part3" id="msg26"><polygon fill="#181818" points="442.73,978.9844,432.73,982.9844,442.73,986.9844,438.73,982.9844" style="stroke:#181818;stroke-width:1;"/><line style="stroke:#181818;stroke-width:1;" x1="436.73" x2="1003.3545" y1="982.9844" y2="982.9844"/><text fill="#000000" font-family="sans-serif" font-size="13" lengthAdjust="spacing" textLength="109.5923" x="448.73" y="977.9185">returns message</text></g><g class="message" data-entity-1="part3" data-entity-2="part6" id="msg27"><polygon fill="#181818" points="992.3545,1008.1172,1002.3545,1012.1172,992.3545,1016.1172,996.3545,1012.1172" style="stroke:#181818;stroke-width:1;"/><line style="stroke:#181818;stroke-width:1;" x1="431.73" x2="998.3545" y1="1012.1172" y2="1012.1172"/><text fill="#000000" font-family="sans-serif" font-size="13" lengthAdjust="spacing" textLength="318.9507" x="438.73" y="1007.0513">save message status with the status of SENDING</text></g><g class="message" data-entity-1="part6" data-entity-2="part3" id="msg28"><polygon fill="#181818" points="442.73,1037.25,432.73,1041.25,442.73,1045.25,438.73,1041.25" style="stroke:#181818;stroke-width:1;"/><line style="stroke:#181818;stroke-width:1;" x1="436.73" x2="1003.3545" y1="1041.25" y2="1041.25"/><text fill="#000000" font-family="sans-serif" font-size="13" lengthAdjust="spacing" textLength="153.6704" x="448.73" y="1036.1841">returns message status</text></g><g class="message" data-entity-1="part3" data-entity-2="part4" id="msg29"><polygon fill="#181818" points="676.5981,1066.3828,686.5981,1070.3828,676.5981,1074.3828,680.5981,1070.3828" style="stroke:#181818;stroke-width:1;"/><line style="stroke:#181818;stroke-width:1;" x1="431.73" x2="682.5981" y1="1070.3828" y2="1070.3828"/><text fill="#000000" font-family="sans-serif" font-size="13" lengthAdjust="spacing" textLength="93.8184" x="438.73" y="1065.3169">send message</text></g><g class="message" data-entity-1="part4" data-entity-2="part7" id="msg30"><polygon fill="#181818" points="1129.5645,1095.5156,1139.5645,1099.5156,1129.5645,1103.5156,1133.5645,1099.5156" style="stroke:#181818;stroke-width:1;"/><line style="stroke:#181818;stroke-width:1;" x1="688.5981" x2="1135.5645" y1="1099.5156" y2="1099.5156"/><text fill="#000000" font-family="sans-serif" font-size="13" lengthAdjust="spacing" textLength="93.8184" x="695.5981" y="1094.4497">send message</text></g><g class="message" data-entity-1="part4" data-entity-2="part3" id="msg31"><polygon fill="#181818" points="442.73,1124.6484,432.73,1128.6484,442.73,1132.6484,438.73,1128.6484" style="stroke:#181818;stroke-width:1;"/><line style="stroke:#181818;stroke-width:1;stroke-dasharray:2,2;" x1="436.73" x2="687.5981" y1="1128.6484" y2="1128.6484"/><text fill="#000000" font-family="sans-serif" font-size="13" lengthAdjust="spacing" textLength="157.9995" x="448.73" y="1123.5825">sending message status</text></g><path d="M367.501,1143.6484 L431.9438,1143.6484 L431.9438,1150.7813 L421.9438,1160.7813 L367.501,1160.7813 L367.501,1143.6484" fill="#EEEEEE" style="stroke:#000000;stroke-width:1.5;"/><rect fill="none" height="193.9297" style="stroke:#000000;stroke-width:1.5;" width="857.6074" x="367.501" y="1143.6484"/><text fill="#000000" font-family="sans-serif" font-size="13" font-weight="bold" lengthAdjust="spacing" textLength="19.4429" x="382.501" y="1156.7153">alt</text><text fill="#000000" font-family="sans-serif" font-size="11" font-weight="bold" lengthAdjust="spacing" textLength="162.5615" x="446.9438" y="1155.8589">[if send message success]</text><g class="message" data-entity-1="part7" data-entity-2="part4" id="msg32"><polygon fill="#181818" points="699.5981,1177.9141,689.5981,1181.9141,699.5981,1185.9141,695.5981,1181.9141" style="stroke:#181818;stroke-width:1;"/><line style="stroke:#181818;stroke-width:1;stroke-dasharray:2,2;" x1="693.5981" x2="1140.5645" y1="1181.9141" y2="1181.9141"/><text fill="#000000" font-family="sans-serif" font-size="13" lengthAdjust="spacing" textLength="168.9048" x="705.5981" y="1176.8481">sending message success</text></g><g class="message" data-entity-1="part4" data-entity-2="part3" id="msg33"><polygon fill="#181818" points="442.73,1207.0469,432.73,1211.0469,442.73,1215.0469,438.73,1211.0469" style="stroke:#181818;stroke-width:1;"/><line style="stroke:#181818;stroke-width:1;stroke-dasharray:2,2;" x1="436.73" x2="687.5981" y1="1211.0469" y2="1211.0469"/><text fill="#000000" font-family="sans-serif" font-size="13" lengthAdjust="spacing" textLength="145.7231" x="448.73" y="1205.981">inform sending sucess</text></g><g class="message" data-entity-1="part3" data-entity-2="part6" id="msg34"><polygon fill="#181818" points="992.3545,1236.1797,1002.3545,1240.1797,992.3545,1244.1797,996.3545,1240.1797" style="stroke:#181818;stroke-width:1;"/><line style="stroke:#181818;stroke-width:1;" x1="431.73" x2="998.3545" y1="1240.1797" y2="1240.1797"/><text fill="#000000" font-family="sans-serif" font-size="13" lengthAdjust="spacing" textLength="222.4155" x="438.73" y="1235.1138">update message status with SENT</text></g><line style="stroke:#000000;stroke-width:1;stroke-dasharray:2,2;" x1="367.501" x2="1225.1084" y1="1249.1797" y2="1249.1797"/><g class="message" data-entity-1="part7" data-entity-2="part4" id="msg35"><polygon fill="#181818" points="699.5981,1267.3125,689.5981,1271.3125,699.5981,1275.3125,695.5981,1271.3125" style="stroke:#181818;stroke-width:1;"/><line style="stroke:#181818;stroke-width:1;stroke-dasharray:2,2;" x1="693.5981" x2="1140.5645" y1="1271.3125" y2="1271.3125"/><text fill="#000000" font-family="sans-serif" font-size="13" lengthAdjust="spacing" textLength="154.0703" x="705.5981" y="1266.2466">sending message failed</text></g><g class="message" data-entity-1="part4" data-entity-2="part3" id="msg36"><polygon fill="#181818" points="442.73,1296.4453,432.73,1300.4453,442.73,1304.4453,438.73,1300.4453" style="stroke:#181818;stroke-width:1;"/><line style="stroke:#181818;stroke-width:1;stroke-dasharray:2,2;" x1="436.73" x2="687.5981" y1="1300.4453" y2="1300.4453"/><text fill="#000000" font-family="sans-serif" font-size="13" lengthAdjust="spacing" textLength="138.0361" x="448.73" y="1295.3794">inform sending failed</text></g><g class="message" data-entity-1="part3" data-entity-2="part6" id="msg37"><polygon fill="#181818" points="992.3545,1325.5781,1002.3545,1329.5781,992.3545,1333.5781,996.3545,1329.5781" style="stroke:#181818;stroke-width:1;"/><line style="stroke:#181818;stroke-width:1;" x1="431.73" x2="998.3545" y1="1329.5781" y2="1329.5781"/><text fill="#000000" font-family="sans-serif" font-size="13" lengthAdjust="spacing" textLength="256.8135" x="438.73" y="1324.5122">update message status with NOT_SENT</text></g><path d="M367.501,1351.5781 L603.0576,1351.5781 L603.0576,1358.7109 L593.0576,1368.7109 L367.501,1368.7109 L367.501,1351.5781" fill="#EEEEEE" style="stroke:#000000;stroke-width:1.5;"/><rect fill="none" height="75.3984" style="stroke:#000000;stroke-width:1.5;" width="1010.0752" x="367.501" y="1351.5781"/><text fill="#000000" font-family="sans-serif" font-size="13" font-weight="bold" lengthAdjust="spacing" textLength="190.5566" x="382.501" y="1364.645">handle incoming message</text><g class="message" data-entity-1="part8" data-entity-2="part4" id="msg38"><polygon fill="#181818" points="704.5981,1385.8438,694.5981,1389.8438,704.5981,1393.8438,700.5981,1389.8438" style="stroke:#181818;stroke-width:1;"/><line style="stroke:#181818;stroke-width:1;stroke-dasharray:2,2;" x1="698.5981" x2="1290.3423" y1="1389.8438" y2="1389.8438"/><text fill="#000000" font-family="sans-serif" font-size="13" lengthAdjust="spacing" textLength="117.1206" x="710.5981" y="1384.7778">recieves message</text></g><g class="message" data-entity-1="part4" data-entity-2="part3" id="msg39"><polygon fill="#181818" points="442.73,1414.9766,432.73,1418.9766,442.73,1422.9766,438.73,1418.9766" style="stroke:#181818;stroke-width:1;"/><line style="stroke:#181818;stroke-width:1;" x1="436.73" x2="687.5981" y1="1418.9766" y2="1418.9766"/><text fill="#000000" font-family="sans-serif" font-size="13" lengthAdjust="spacing" textLength="170.7139" x="448.73" y="1413.9106">handle incoming message</text></g><?plantuml-src pLRBhjiW4DtxA_W1_y1THAfkgYfIbKQwwRhYud62BW44s7ryVS5sR0PinysgsOGOvimvPsQ2ANFAaEyMJA6fSPnnJQKZhuA3T9-qna-lrBs1QJa3_5n92Snn9UTsJm1cxlbNnQZOKqVVgSKxvzVJGA2YsYNK_6P00pEt6N9Dt8kWYvIxISuBOOAp3qkObqACKZVoaxihqJwke5v2Inr4wiTLWd81HzmLo65FLDsjEWHyV7BBf-qj8awDf_lCXtsKD_8tMWUmoCGfUuV2PRUk1YD9osa0dL1Z_wDrG4KbmBXJFAuJ-aNAb9e1rnXfUuWA5a2Ya39r2Y5iig7YbYdV453rZWmE95gtXEAO9MPfK2GpzZhbdat9V5Tqx4-4Ie-kZ8kw8vio0pK9HF8jyjA3UU3kcuq7YlnikT2iNfzj60DhwqQ8tx7Ed0iIcupSF5mKKUvGVYwvurJmFp3PeetIO1nciJhf5ho5Dv-ENk3nRCVvuyYuDfXoCZpi2ko3y3h8zJMnDBZJp_We0dvnw-ocqIeJJ-xDzwwK02gpH7TeuPQsYF-i2RZFH1pR1MtYbKLjBY_YEfOPX7Va4MLc8DZudp2MLR7Q8PQsC3OafZZFy7vsAoYnZhh6Jaqt_FPNrDldu_vm_F8lQOVeHDFClnWQj6o_tANN-T9ePjT-ZfKm3ZXSNbB6mn2WCHx-Uhf2fudAHLa8F49uo8pBMfdRYE5Znz2LOZQw2aRCbTCNy3mDnNCAQie5L4y9Y4EV4t3yTlxHY_1pilXcK5oCQZIv-kjFW2V1r2rIKAGlV_Ew3J0EBTZP5iClZsitMjx9oA4bZkltPBIPaGdE_0K0?></g></svg>